<mxfile host="app.diagrams.net" modified="2021-11-07T09:54:55.447Z" agent="5.0 (Windows NT 10.0; WOW64) AppleWebKit/537.36 (KHTML, like Gecko) Chrome/95.0.4638.54 Safari/537.36" etag="pPFonZL3NwhFCOgQzrf4" version="14.7.4" type="github">
  <diagram id="kgpKYQtTHZ0yAKxKKP6v" name="Page-1">
    <mxGraphModel dx="2400" dy="834" grid="1" gridSize="10" guides="1" tooltips="1" connect="1" arrows="1" fold="1" page="1" pageScale="1" pageWidth="850" pageHeight="1100" math="0" shadow="0">
      <root>
        <mxCell id="0" />
        <mxCell id="1" parent="0" />
        <mxCell id="lMRRs4WO4LJnv8kvptYT-1" value="" style="edgeStyle=orthogonalEdgeStyle;rounded=0;orthogonalLoop=1;jettySize=auto;html=1;labelBackgroundColor=#F1FAEE;strokeColor=#457B9D;fontColor=#1D3557;" edge="1" parent="1" source="lMRRs4WO4LJnv8kvptYT-4" target="lMRRs4WO4LJnv8kvptYT-5">
          <mxGeometry relative="1" as="geometry" />
        </mxCell>
        <mxCell id="lMRRs4WO4LJnv8kvptYT-2" value="" style="edgeStyle=orthogonalEdgeStyle;rounded=0;orthogonalLoop=1;jettySize=auto;html=1;labelBackgroundColor=#F1FAEE;strokeColor=#457B9D;fontColor=#1D3557;" edge="1" parent="1" source="lMRRs4WO4LJnv8kvptYT-4" target="lMRRs4WO4LJnv8kvptYT-6">
          <mxGeometry relative="1" as="geometry" />
        </mxCell>
        <mxCell id="lMRRs4WO4LJnv8kvptYT-3" value="" style="edgeStyle=orthogonalEdgeStyle;rounded=0;orthogonalLoop=1;jettySize=auto;html=1;labelBackgroundColor=#F1FAEE;strokeColor=#457B9D;fontColor=#1D3557;" edge="1" parent="1" source="lMRRs4WO4LJnv8kvptYT-4" target="lMRRs4WO4LJnv8kvptYT-7">
          <mxGeometry relative="1" as="geometry" />
        </mxCell>
        <mxCell id="lMRRs4WO4LJnv8kvptYT-4" value="MQ的作用" style="rounded=0;whiteSpace=wrap;html=1;fillColor=#A8DADC;strokeColor=#457B9D;fontColor=#1D3557;" vertex="1" parent="1">
          <mxGeometry x="340" y="280" width="120" height="60" as="geometry" />
        </mxCell>
        <mxCell id="lMRRs4WO4LJnv8kvptYT-5" value="服务异步处理" style="rounded=0;whiteSpace=wrap;html=1;fillColor=#A8DADC;strokeColor=#457B9D;fontColor=#1D3557;" vertex="1" parent="1">
          <mxGeometry x="130" y="420" width="120" height="60" as="geometry" />
        </mxCell>
        <mxCell id="lMRRs4WO4LJnv8kvptYT-6" value="服务解耦" style="rounded=0;whiteSpace=wrap;html=1;fillColor=#A8DADC;strokeColor=#457B9D;fontColor=#1D3557;" vertex="1" parent="1">
          <mxGeometry x="340" y="420" width="120" height="60" as="geometry" />
        </mxCell>
        <mxCell id="lMRRs4WO4LJnv8kvptYT-7" value="流量削峰" style="rounded=0;whiteSpace=wrap;html=1;fillColor=#A8DADC;strokeColor=#457B9D;fontColor=#1D3557;" vertex="1" parent="1">
          <mxGeometry x="550" y="420" width="120" height="60" as="geometry" />
        </mxCell>
        <mxCell id="lMRRs4WO4LJnv8kvptYT-8" value="" style="edgeStyle=orthogonalEdgeStyle;rounded=0;orthogonalLoop=1;jettySize=auto;html=1;labelBackgroundColor=#F1FAEE;strokeColor=#457B9D;fontColor=#1D3557;" edge="1" parent="1" source="lMRRs4WO4LJnv8kvptYT-11" target="lMRRs4WO4LJnv8kvptYT-13">
          <mxGeometry relative="1" as="geometry" />
        </mxCell>
        <mxCell id="lMRRs4WO4LJnv8kvptYT-9" value="" style="edgeStyle=orthogonalEdgeStyle;rounded=0;orthogonalLoop=1;jettySize=auto;html=1;labelBackgroundColor=#F1FAEE;strokeColor=#457B9D;fontColor=#1D3557;" edge="1" parent="1" source="lMRRs4WO4LJnv8kvptYT-11" target="lMRRs4WO4LJnv8kvptYT-15">
          <mxGeometry relative="1" as="geometry" />
        </mxCell>
        <mxCell id="lMRRs4WO4LJnv8kvptYT-10" value="" style="edgeStyle=orthogonalEdgeStyle;rounded=0;orthogonalLoop=1;jettySize=auto;html=1;labelBackgroundColor=#F1FAEE;strokeColor=#457B9D;fontColor=#1D3557;" edge="1" parent="1" source="lMRRs4WO4LJnv8kvptYT-11" target="lMRRs4WO4LJnv8kvptYT-17">
          <mxGeometry relative="1" as="geometry" />
        </mxCell>
        <mxCell id="lMRRs4WO4LJnv8kvptYT-11" value="RAFT" style="rounded=0;whiteSpace=wrap;html=1;fillColor=#A8DADC;strokeColor=#457B9D;fontColor=#1D3557;" vertex="1" parent="1">
          <mxGeometry x="345" y="680" width="120" height="60" as="geometry" />
        </mxCell>
        <mxCell id="lMRRs4WO4LJnv8kvptYT-12" value="" style="edgeStyle=orthogonalEdgeStyle;rounded=0;orthogonalLoop=1;jettySize=auto;html=1;labelBackgroundColor=#F1FAEE;strokeColor=#457B9D;fontColor=#1D3557;" edge="1" parent="1" source="lMRRs4WO4LJnv8kvptYT-13" target="lMRRs4WO4LJnv8kvptYT-18">
          <mxGeometry relative="1" as="geometry" />
        </mxCell>
        <mxCell id="lMRRs4WO4LJnv8kvptYT-13" value="Leader" style="rounded=0;whiteSpace=wrap;html=1;fillColor=#f9f7ed;strokeColor=#36393d;labelBackgroundColor=none;labelBorderColor=none;" vertex="1" parent="1">
          <mxGeometry x="185" y="830" width="120" height="60" as="geometry" />
        </mxCell>
        <mxCell id="lMRRs4WO4LJnv8kvptYT-14" value="" style="edgeStyle=orthogonalEdgeStyle;rounded=0;orthogonalLoop=1;jettySize=auto;html=1;labelBackgroundColor=#F1FAEE;strokeColor=#457B9D;fontColor=#1D3557;" edge="1" parent="1" source="lMRRs4WO4LJnv8kvptYT-15" target="lMRRs4WO4LJnv8kvptYT-19">
          <mxGeometry relative="1" as="geometry" />
        </mxCell>
        <mxCell id="lMRRs4WO4LJnv8kvptYT-15" value="Candidate" style="rounded=0;whiteSpace=wrap;html=1;fillColor=#f9f7ed;strokeColor=#36393d;" vertex="1" parent="1">
          <mxGeometry x="345" y="830" width="120" height="60" as="geometry" />
        </mxCell>
        <mxCell id="lMRRs4WO4LJnv8kvptYT-16" value="" style="edgeStyle=orthogonalEdgeStyle;curved=0;rounded=1;sketch=0;orthogonalLoop=1;jettySize=auto;html=1;fontColor=#1D3557;strokeColor=#457B9D;fillColor=#A8DADC;" edge="1" parent="1" source="lMRRs4WO4LJnv8kvptYT-17" target="lMRRs4WO4LJnv8kvptYT-20">
          <mxGeometry relative="1" as="geometry" />
        </mxCell>
        <mxCell id="lMRRs4WO4LJnv8kvptYT-17" value="Follower" style="rounded=0;whiteSpace=wrap;html=1;fillColor=#f9f7ed;strokeColor=#36393d;" vertex="1" parent="1">
          <mxGeometry x="510" y="830" width="120" height="60" as="geometry" />
        </mxCell>
        <mxCell id="lMRRs4WO4LJnv8kvptYT-18" value="负责所有的写请求，发起日志复制，定时心跳" style="shape=document;whiteSpace=wrap;html=1;boundedLbl=1;rounded=0;fillColor=none;strokeColor=#457B9D;fontColor=#1D3557;" vertex="1" parent="1">
          <mxGeometry x="185" y="960" width="120" height="80" as="geometry" />
        </mxCell>
        <mxCell id="lMRRs4WO4LJnv8kvptYT-19" value="用来选举新的Leader,当Follower超时，就会进入Candidate状态" style="shape=document;whiteSpace=wrap;html=1;boundedLbl=1;rounded=0;fillColor=none;" vertex="1" parent="1">
          <mxGeometry x="345" y="960" width="120" height="80" as="geometry" />
        </mxCell>
        <mxCell id="lMRRs4WO4LJnv8kvptYT-20" value="&lt;span&gt;处于被动状态，负责处理Leader发过来的RPC请求&lt;/span&gt;" style="shape=document;whiteSpace=wrap;html=1;boundedLbl=1;rounded=0;fillColor=none;" vertex="1" parent="1">
          <mxGeometry x="510" y="960" width="120" height="80" as="geometry" />
        </mxCell>
        <mxCell id="lMRRs4WO4LJnv8kvptYT-21" style="edgeStyle=none;shape=link;rounded=1;sketch=0;orthogonalLoop=1;jettySize=auto;html=1;exitX=0.5;exitY=1;exitDx=0;exitDy=0;entryX=0.5;entryY=0;entryDx=0;entryDy=0;fontColor=#1D3557;strokeColor=#457B9D;fillColor=#A8DADC;" edge="1" parent="1" source="lMRRs4WO4LJnv8kvptYT-22" target="lMRRs4WO4LJnv8kvptYT-11">
          <mxGeometry relative="1" as="geometry" />
        </mxCell>
        <mxCell id="lMRRs4WO4LJnv8kvptYT-22" value="可靠，可复制&lt;br&gt;可冗余，可容错" style="shape=hexagon;perimeter=hexagonPerimeter2;whiteSpace=wrap;html=1;fixedSize=1;rounded=0;fontColor=#1D3557;strokeColor=#457B9D;fillColor=#A8DADC;" vertex="1" parent="1">
          <mxGeometry x="337.5" y="570" width="135" height="80" as="geometry" />
        </mxCell>
        <mxCell id="lMRRs4WO4LJnv8kvptYT-23" value="注入" style="edgeStyle=none;rounded=1;sketch=0;orthogonalLoop=1;jettySize=auto;html=1;fontColor=#1D3557;strokeColor=#457B9D;fillColor=#A8DADC;" edge="1" parent="1" source="lMRRs4WO4LJnv8kvptYT-26" target="lMRRs4WO4LJnv8kvptYT-29">
          <mxGeometry relative="1" as="geometry" />
        </mxCell>
        <mxCell id="lMRRs4WO4LJnv8kvptYT-24" value="" style="edgeStyle=none;rounded=1;sketch=0;orthogonalLoop=1;jettySize=auto;html=1;fontColor=#1D3557;strokeColor=#457B9D;fillColor=#A8DADC;shape=link;" edge="1" parent="1" source="lMRRs4WO4LJnv8kvptYT-26" target="lMRRs4WO4LJnv8kvptYT-30">
          <mxGeometry relative="1" as="geometry" />
        </mxCell>
        <mxCell id="lMRRs4WO4LJnv8kvptYT-25" value="" style="edgeStyle=none;rounded=1;sketch=0;orthogonalLoop=1;jettySize=auto;html=1;fontColor=#1D3557;strokeColor=#457B9D;fillColor=#A8DADC;dashed=1;" edge="1" parent="1" source="lMRRs4WO4LJnv8kvptYT-26" target="lMRRs4WO4LJnv8kvptYT-32">
          <mxGeometry relative="1" as="geometry" />
        </mxCell>
        <mxCell id="lMRRs4WO4LJnv8kvptYT-26" value="DataSource" style="rounded=0;whiteSpace=wrap;html=1;sketch=0;fillColor=#f9f7ed;strokeColor=#36393d;" vertex="1" parent="1">
          <mxGeometry x="121.25" y="1215" width="120" height="60" as="geometry" />
        </mxCell>
        <mxCell id="lMRRs4WO4LJnv8kvptYT-27" value="" style="edgeStyle=none;rounded=1;sketch=0;orthogonalLoop=1;jettySize=auto;html=1;fontColor=#1D3557;strokeColor=#457B9D;fillColor=#A8DADC;shape=link;" edge="1" parent="1" source="lMRRs4WO4LJnv8kvptYT-29" target="lMRRs4WO4LJnv8kvptYT-31">
          <mxGeometry relative="1" as="geometry" />
        </mxCell>
        <mxCell id="lMRRs4WO4LJnv8kvptYT-28" value="" style="edgeStyle=none;rounded=1;sketch=0;orthogonalLoop=1;jettySize=auto;html=1;dashed=1;fontColor=#1D3557;strokeColor=#457B9D;fillColor=#A8DADC;" edge="1" parent="1" source="lMRRs4WO4LJnv8kvptYT-29" target="lMRRs4WO4LJnv8kvptYT-33">
          <mxGeometry relative="1" as="geometry" />
        </mxCell>
        <mxCell id="lMRRs4WO4LJnv8kvptYT-29" value="SqlSessionFactory" style="rounded=0;whiteSpace=wrap;html=1;sketch=0;fillColor=#f9f7ed;strokeColor=#36393d;" vertex="1" parent="1">
          <mxGeometry x="121.25" y="1355" width="120" height="60" as="geometry" />
        </mxCell>
        <mxCell id="lMRRs4WO4LJnv8kvptYT-30" value="driverClassName&lt;br&gt;jdbc&lt;br&gt;username&lt;br&gt;password&lt;br&gt;..." style="shape=process;whiteSpace=wrap;html=1;backgroundOutline=1;rounded=0;strokeColor=#36393d;fillColor=#f9f7ed;sketch=0;" vertex="1" parent="1">
          <mxGeometry x="328.75" y="1210" width="210" height="70" as="geometry" />
        </mxCell>
        <mxCell id="lMRRs4WO4LJnv8kvptYT-31" value="dataSource(数据源)&lt;br&gt;configLoaction(对应的资源文件)&lt;br&gt;mapperInterface(mapper文件管理)" style="shape=process;whiteSpace=wrap;html=1;backgroundOutline=1;rounded=0;strokeColor=#36393d;fillColor=#f9f7ed;sketch=0;" vertex="1" parent="1">
          <mxGeometry x="328.75" y="1347.5" width="228.75" height="75" as="geometry" />
        </mxCell>
        <mxCell id="lMRRs4WO4LJnv8kvptYT-32" value="HikariDataSource" style="shape=process;whiteSpace=wrap;html=1;backgroundOutline=1;rounded=0;strokeColor=#36393d;fillColor=#f9f7ed;sketch=0;" vertex="1" parent="1">
          <mxGeometry x="116.88" y="1140" width="128.75" height="35" as="geometry" />
        </mxCell>
        <mxCell id="lMRRs4WO4LJnv8kvptYT-33" value="SqlSessionFacotyBean" style="shape=process;whiteSpace=wrap;html=1;backgroundOutline=1;rounded=0;strokeColor=#36393d;fillColor=#f9f7ed;sketch=0;" vertex="1" parent="1">
          <mxGeometry x="-140" y="1355" width="181.25" height="60" as="geometry" />
        </mxCell>
        <mxCell id="lMRRs4WO4LJnv8kvptYT-34" value="" style="edgeStyle=none;rounded=1;sketch=0;orthogonalLoop=1;jettySize=auto;html=1;dashed=1;fontColor=#1D3557;strokeColor=#457B9D;fillColor=#A8DADC;" edge="1" parent="1" source="lMRRs4WO4LJnv8kvptYT-35" target="lMRRs4WO4LJnv8kvptYT-37">
          <mxGeometry relative="1" as="geometry" />
        </mxCell>
        <mxCell id="lMRRs4WO4LJnv8kvptYT-35" value="@MapperScan" style="rounded=0;whiteSpace=wrap;html=1;sketch=0;strokeColor=#36393d;fillColor=#f9f7ed;" vertex="1" parent="1">
          <mxGeometry x="-150" y="1760" width="120" height="60" as="geometry" />
        </mxCell>
        <mxCell id="lMRRs4WO4LJnv8kvptYT-36" value="" style="edgeStyle=none;rounded=1;sketch=0;orthogonalLoop=1;jettySize=auto;html=1;dashed=1;fontColor=#1D3557;strokeColor=#457B9D;fillColor=#A8DADC;" edge="1" parent="1" source="lMRRs4WO4LJnv8kvptYT-37" target="lMRRs4WO4LJnv8kvptYT-40">
          <mxGeometry relative="1" as="geometry" />
        </mxCell>
        <mxCell id="lMRRs4WO4LJnv8kvptYT-37" value="MapperScannerRegistrar" style="rounded=0;whiteSpace=wrap;html=1;strokeColor=#36393d;fillColor=#f9f7ed;sketch=0;" vertex="1" parent="1">
          <mxGeometry x="80" y="1760" width="188.75" height="60" as="geometry" />
        </mxCell>
        <mxCell id="lMRRs4WO4LJnv8kvptYT-38" value="@import" style="text;html=1;strokeColor=none;fillColor=none;align=center;verticalAlign=middle;whiteSpace=wrap;rounded=0;sketch=0;fontColor=#1D3557;" vertex="1" parent="1">
          <mxGeometry x="10" y="1770" width="40" height="20" as="geometry" />
        </mxCell>
        <mxCell id="lMRRs4WO4LJnv8kvptYT-39" value="" style="edgeStyle=none;rounded=1;sketch=0;orthogonalLoop=1;jettySize=auto;html=1;dashed=1;fontColor=#1D3557;strokeColor=#457B9D;fillColor=#A8DADC;" edge="1" parent="1" source="lMRRs4WO4LJnv8kvptYT-40" target="lMRRs4WO4LJnv8kvptYT-42">
          <mxGeometry relative="1" as="geometry" />
        </mxCell>
        <mxCell id="lMRRs4WO4LJnv8kvptYT-40" value="registerBeanDefinitions()方法" style="rounded=0;whiteSpace=wrap;html=1;strokeColor=#36393d;fillColor=#f9f7ed;sketch=0;" vertex="1" parent="1">
          <mxGeometry x="80" y="1890" width="188.75" height="60" as="geometry" />
        </mxCell>
        <mxCell id="lMRRs4WO4LJnv8kvptYT-41" value="调用" style="text;html=1;strokeColor=none;fillColor=none;align=center;verticalAlign=middle;whiteSpace=wrap;rounded=0;sketch=0;fontColor=#1D3557;" vertex="1" parent="1">
          <mxGeometry x="154.38" y="1820" width="40" height="50" as="geometry" />
        </mxCell>
        <mxCell id="lMRRs4WO4LJnv8kvptYT-42" value="scanner.doScan&lt;br&gt;(basepackages)" style="whiteSpace=wrap;html=1;rounded=0;strokeColor=#36393d;fillColor=#f9f7ed;sketch=0;" vertex="1" parent="1">
          <mxGeometry x="56.559999999999995" y="2030" width="235.62" height="50" as="geometry" />
        </mxCell>
        <mxCell id="lMRRs4WO4LJnv8kvptYT-43" value="Mapper的加载流程" style="rounded=0;whiteSpace=wrap;html=1;sketch=0;strokeColor=#36393d;fillColor=#f9f7ed;" vertex="1" parent="1">
          <mxGeometry x="-150" y="1670" width="520" height="60" as="geometry" />
        </mxCell>
        <mxCell id="lMRRs4WO4LJnv8kvptYT-44" value="&lt;span&gt;创建对象ClassPathMapperScanner&lt;/span&gt;" style="shape=document;whiteSpace=wrap;html=1;boundedLbl=1;rounded=0;sketch=0;strokeColor=#36393d;fillColor=#f9f7ed;" vertex="1" parent="1">
          <mxGeometry x="93.12" y="1970" width="175.63" height="40" as="geometry" />
        </mxCell>
      </root>
    </mxGraphModel>
  </diagram>
</mxfile>
